<svg width="172" height="174" viewBox="0 0 172 174" fill="none" xmlns="http://www.w3.org/2000/svg">
<path fill-rule="evenodd" clip-rule="evenodd" d="M100.962 83.4199C100.985 84.6175 101.718 85.6866 102.826 86.1397L161.709 110.196C163.516 110.934 165.536 109.772 165.839 107.844C166.518 103.529 167.259 99.358 167.977 95.3211C174.915 56.3015 179.616 29.8564 103.433 8.09941C101.507 7.54936 99.5384 9.00673 99.5767 11.0094L100.962 83.4199ZM133.5 78C144.27 78 153 69.2696 153 58.5C153 47.7305 144.27 39 133.5 39C122.73 39 114 47.7305 114 58.5C114 69.2696 122.73 78 133.5 78Z" fill="white"/>
<mask id="mask0_9_42" style="mask-type:luminance" maskUnits="userSpaceOnUse" x="99" y="7" width="73" height="104">
<path fill-rule="evenodd" clip-rule="evenodd" d="M100.962 83.4199C100.985 84.6175 101.718 85.6866 102.826 86.1397L161.709 110.196C163.516 110.934 165.536 109.772 165.839 107.844C166.518 103.529 167.259 99.358 167.977 95.3211C174.915 56.3015 179.616 29.8564 103.433 8.09941C101.507 7.54936 99.5384 9.00673 99.5767 11.0094L100.962 83.4199ZM133.5 78C144.27 78 153 69.2696 153 58.5C153 47.7305 144.27 39 133.5 39C122.73 39 114 47.7305 114 58.5C114 69.2696 122.73 78 133.5 78Z" fill="white"/>
</mask>
<g mask="url(#mask0_9_42)">
<path d="M103.961 83.3625L97.9622 83.4772C98.008 85.8724 99.4742 88.0108 101.692 88.9168L103.961 83.3625ZM162.844 107.419L103.961 83.3625L101.692 88.9168L160.575 112.973L162.844 107.419ZM162.876 107.378C162.874 107.389 162.872 107.393 162.872 107.394C162.871 107.395 162.871 107.397 162.87 107.398C162.867 107.402 162.86 107.409 162.85 107.415C162.839 107.421 162.834 107.421 162.838 107.42C162.841 107.42 162.844 107.42 162.848 107.421C162.851 107.421 162.85 107.422 162.844 107.419L160.575 112.973C164.206 114.457 168.205 112.114 168.803 108.31L162.876 107.378ZM165.023 94.796C164.306 98.8288 163.559 103.029 162.876 107.378L168.803 108.31C169.476 104.03 170.212 99.8872 170.931 95.8463L165.023 94.796ZM102.609 10.9841C140.583 21.8288 157.356 33.5952 164.221 46.6343C171.129 59.7566 168.545 74.9914 165.023 94.796L170.931 95.8463C174.347 76.6312 177.582 59.1336 169.53 43.8392C161.434 28.4617 142.467 16.1271 104.257 5.21476L102.609 10.9841ZM102.576 10.9521C102.576 10.9516 102.576 10.9534 102.576 10.9571C102.575 10.9607 102.575 10.9653 102.573 10.9705C102.571 10.9813 102.567 10.9906 102.564 10.9974C102.557 11.0098 102.556 11.0065 102.568 10.9975C102.573 10.9935 102.579 10.9899 102.586 10.9871C102.592 10.9844 102.596 10.9832 102.599 10.9827C102.6 10.9824 102.601 10.9824 102.601 10.9823C102.602 10.9824 102.602 10.9824 102.603 10.9825C102.603 10.9826 102.606 10.983 102.609 10.9841L104.257 5.21476C100.473 4.13414 96.4988 6.96353 96.5772 11.0668L102.576 10.9521ZM103.961 83.3625L102.576 10.9521L96.5772 11.0668L97.9622 83.4772L103.961 83.3625ZM150 58.5C150 67.6127 142.613 75 133.5 75V81C145.926 81 156 70.9264 156 58.5H150ZM133.5 42C142.613 42 150 49.3873 150 58.5H156C156 46.0736 145.926 36 133.5 36V42ZM117 58.5C117 49.3873 124.387 42 133.5 42V36C121.074 36 111 46.0736 111 58.5H117ZM133.5 75C124.387 75 117 67.6127 117 58.5H111C111 70.9264 121.074 81 133.5 81V75Z" fill="black"/>
</g>
<path fill-rule="evenodd" clip-rule="evenodd" d="M97.4612 75.4955C98.5485 74.9929 99.2325 73.8917 99.2013 72.6943L97.5439 9.10858C97.4931 7.15796 95.6165 5.77549 93.7297 6.27324C89.5064 7.38741 85.3889 8.38611 81.4043 9.35259C42.8894 18.6944 16.7865 25.0256 27.5072 103.526C27.7782 105.511 29.9044 106.727 31.7226 105.887L97.4612 75.4955ZM79.4123 47.8847C75.0809 38.0246 63.5763 33.5427 53.7162 37.8742C43.8561 42.2056 39.3743 53.7102 43.7057 63.5703C48.0372 73.4304 59.5417 77.9123 69.4018 73.5808C79.2619 69.2493 83.7438 57.7448 79.4123 47.8847Z" fill="white"/>
<mask id="mask1_9_42" style="mask-type:luminance" maskUnits="userSpaceOnUse" x="25" y="6" width="75" height="101">
<path fill-rule="evenodd" clip-rule="evenodd" d="M97.4612 75.4955C98.5485 74.9929 99.2325 73.8917 99.2013 72.6943L97.5439 9.10858C97.4931 7.15796 95.6165 5.77549 93.7297 6.27324C89.5064 7.38741 85.3889 8.38611 81.4043 9.35259C42.8894 18.6944 16.7865 25.0256 27.5072 103.526C27.7782 105.511 29.9044 106.727 31.7226 105.887L97.4612 75.4955ZM79.4123 47.8847C75.0809 38.0246 63.5763 33.5427 53.7162 37.8742C43.8561 42.2056 39.3743 53.7102 43.7057 63.5703C48.0372 73.4304 59.5417 77.9123 69.4018 73.5808C79.2619 69.2493 83.7438 57.7448 79.4123 47.8847Z" fill="white"/>
</mask>
<g mask="url(#mask1_9_42)">
<path d="M96.2024 72.7724L98.7201 78.2186C100.895 77.2134 102.263 75.0109 102.2 72.6161L96.2024 72.7724ZM94.5449 9.18678L96.2024 72.7724L102.2 72.6161L100.543 9.03044L94.5449 9.18678ZM94.495 9.17402C94.5051 9.17136 94.51 9.1712 94.5111 9.17117C94.5125 9.17114 94.5137 9.17122 94.5154 9.17157C94.5199 9.17248 94.529 9.17563 94.5389 9.18298C94.5487 9.19025 94.5504 9.19495 94.5483 9.19113C94.5471 9.18886 94.5458 9.18569 94.5449 9.18247C94.544 9.17892 94.5447 9.17961 94.5449 9.18678L100.543 9.03044C100.441 5.10912 96.6879 2.39023 92.9645 3.37251L94.495 9.17402ZM82.1114 12.2681C86.0921 11.3026 90.2382 10.297 94.495 9.17402L92.9645 3.37251C88.7747 4.47785 84.6857 5.46972 80.6971 6.43715L82.1114 12.2681ZM30.4796 103.12C25.1359 63.9919 29.1625 43.9024 38.3396 32.3732C47.5752 20.7704 62.563 17.0095 82.1114 12.2681L80.6971 6.43715C61.7307 11.0375 44.4095 15.1131 33.6452 28.6365C22.8223 42.2334 19.1578 64.5598 24.5348 103.932L30.4796 103.12ZM30.4637 103.163C30.4633 103.164 30.4649 103.163 30.4684 103.162C30.4719 103.161 30.4764 103.159 30.4816 103.159C30.4925 103.156 30.5025 103.156 30.5101 103.157C30.524 103.157 30.5217 103.16 30.5086 103.153C30.5027 103.149 30.497 103.145 30.492 103.141C30.4871 103.136 30.4841 103.133 30.4827 103.131C30.4819 103.13 30.4816 103.129 30.4814 103.129C30.4813 103.128 30.4813 103.128 30.4813 103.128C30.4812 103.128 30.481 103.128 30.4809 103.127C30.4807 103.126 30.4801 103.124 30.4796 103.12L24.5348 103.932C25.0673 107.831 29.2562 110.332 32.9814 108.61L30.4637 103.163ZM96.2024 72.7724L30.4637 103.163L32.9814 108.61L98.7201 78.2186L96.2024 72.7724ZM54.9228 40.6208C63.266 36.9558 73.0006 40.7481 76.6657 49.0913L82.159 46.6781C77.1612 35.3011 63.8867 30.1297 52.5097 35.1275L54.9228 40.6208ZM46.4524 62.3637C42.7873 54.0205 46.5796 44.2859 54.9228 40.6208L52.5097 35.1275C41.1326 40.1253 35.9612 53.3998 40.959 64.7769L46.4524 62.3637ZM68.1952 70.8341C59.852 74.4992 50.1174 70.7069 46.4524 62.3637L40.959 64.7769C45.9569 76.1539 59.2313 81.3253 70.6084 76.3275L68.1952 70.8341ZM76.6657 49.0913C80.3307 57.4345 76.5384 67.1691 68.1952 70.8341L70.6084 76.3275C81.9854 71.3296 87.1568 58.0552 82.159 46.6781L76.6657 49.0913Z" fill="black"/>
</g>
<path fill-rule="evenodd" clip-rule="evenodd" d="M33.4627 109.884L96.0771 80.664C96.7401 80.3546 97.5 80.8386 97.5 81.5702V85.3155C97.5 86.9393 98.4816 88.402 99.9843 89.0172L156.652 112.22C159.282 113.297 161 115.856 161 118.698V130.948C161 135.562 159.746 140.09 157.372 144.047C151.009 154.652 141.004 162.579 129.226 166.348L125.449 167.556C107.239 173.384 87.6961 173.595 69.3639 168.163L67.3335 167.562C52.0629 163.037 39.1899 152.678 31.5036 138.729C30.5173 136.939 30 134.928 30 132.884V115.321C30 112.99 31.3502 110.87 33.4627 109.884ZM113.783 121.769C109.229 111.403 97.1346 106.691 86.7689 111.245C76.4031 115.799 71.6914 127.893 76.245 138.259C80.7986 148.625 92.8931 153.336 103.259 148.783C113.625 144.229 118.336 132.135 113.783 121.769Z" fill="white"/>
<path d="M95.4428 79.3048L32.8284 108.525L34.097 111.243L96.7114 82.0233L95.4428 79.3048ZM99 81.5702C99 79.7412 97.1002 78.5313 95.4428 79.3048L96.7114 82.0233C96.3799 82.178 96 81.936 96 81.5702H99ZM99 85.3155V81.5702H96V85.3155H99ZM100.553 87.6291C99.6135 87.2445 99 86.3304 99 85.3155H96C96 87.5482 97.3497 89.5594 99.416 90.4054L100.553 87.6291ZM157.221 110.832L100.553 87.6291L99.416 90.4054L156.084 113.608L157.221 110.832ZM162.5 118.698C162.5 115.247 160.414 112.139 157.221 110.832L156.084 113.608C158.15 114.454 159.5 116.465 159.5 118.698H162.5ZM162.5 130.948V118.698H159.5V130.948H162.5ZM158.658 144.819C161.172 140.629 162.5 135.834 162.5 130.948H159.5C159.5 135.291 158.32 139.552 156.085 143.276L158.658 144.819ZM129.683 167.776C141.809 163.896 152.108 155.736 158.658 144.819L156.085 143.276C149.91 153.568 140.2 161.261 128.769 164.919L129.683 167.776ZM125.906 168.985L129.683 167.776L128.769 164.919L124.992 166.128L125.906 168.985ZM68.9378 169.602C87.5587 175.119 107.409 174.904 125.906 168.985L124.992 166.128C107.068 171.863 87.8335 172.071 69.7901 166.725L68.9378 169.602ZM66.9073 169L68.9378 169.602L69.7901 166.725L67.7596 166.124L66.9073 169ZM30.1898 139.453C38.0666 153.748 51.2584 164.363 66.9073 169L67.7596 166.124C52.8673 161.711 40.3133 151.609 32.8173 138.005L30.1898 139.453ZM28.5 132.884C28.5 135.181 29.0813 137.441 30.1898 139.453L32.8173 138.005C31.9532 136.437 31.5 134.675 31.5 132.884H28.5ZM28.5 115.321V132.884H31.5V115.321H28.5ZM32.8284 108.525C30.1878 109.757 28.5 112.407 28.5 115.321H31.5C31.5 113.573 32.5127 111.983 34.097 111.243L32.8284 108.525ZM87.3722 112.618C96.9794 108.398 108.189 112.765 112.409 122.372L115.156 121.166C110.269 110.041 97.2898 104.985 86.1656 109.872L87.3722 112.618ZM77.6183 137.656C73.3979 128.048 77.7649 116.839 87.3722 112.618L86.1656 109.872C75.0413 114.758 69.9849 127.738 74.8716 138.862L77.6183 137.656ZM102.656 147.409C93.0482 151.63 81.8387 147.263 77.6183 137.656L74.8716 138.862C79.7584 149.986 92.7379 155.043 103.862 150.156L102.656 147.409ZM112.409 122.372C116.63 131.979 112.263 143.189 102.656 147.409L103.862 150.156C114.986 145.269 120.043 132.29 115.156 121.166L112.409 122.372Z" fill="black"/>
</svg>
